<?xml version="1.0" encoding="UTF-8"?>
<svg width="108" height="108" version="1.1" viewBox="0 0 108 108" xmlns="http://www.w3.org/2000/svg">
 <!-- Generator: Adobe Illustrator 29.4.0, SVG Export Plug-In . SVG Version: 2.1.0 Build 152)  -->
 <defs>
  <style>.st0 {
        fill: #06625d;
      }</style>
 </defs>
 <g transform="translate(5.6409 .41584)">
  <path class="st0" d="m51.858 68.098c0-1.9397-1.5587-3.4985-3.4985-3.4985s-3.4985 1.5587-3.4985 3.4985c0 1.9397 0.79668 2.5632 1.9397 3.1174l-1.0738 5.6807h5.265l-1.2123-5.6114c1.2123-0.55421 2.0783-1.7666 2.0783-3.1867z" stroke-width=".34638"/>
  <g transform="matrix(.34638 0 0 .34638 -2.9748 -2.9455)">
   <path class="st0" d="m148.2 143c-9.9 0-18 8.1-18 18v14.2h36v-14.2c0-9.9-8.1-18-18-18z"/>
   <path class="st0" d="m148.2 107.1-86.8 23.2v51.1c0 78.4 86.6 115.2 86.6 115.2s87-36.6 87-115.2v-51.1zm40.9 124.8c0 9.7-7.8 17.5-17.5 17.5h-46.6c-9.7 0-17.5-7.8-17.5-17.5v-46.2c0-5.8 4.7-10.5 10.5-10.5h1.3v-14.2c0-16 13-29 29-29s29 13 29 29v14.2h1.3c5.8 0 10.5 4.7 10.5 10.5z"/>
   <path class="st0" d="m109.7 86.7c-3.6 6.6-5.5 14.5-5.5 20.9v3.3l-37.6 10.1v-7.4c0-14.8 12-26.8 26.8-26.8h16.3z"/>
   <path class="st0" d="m229.7 113.5v7.4l-37.6-10.1v-3.3c0-6.3-1.9-14.3-5.5-20.9h16.3c14.8 0 26.8 12 26.8 26.8z"/>
   <path class="st0" d="m185 107.5v1.4l-36.9-9.9-36.9 9.9v-1.4c0-8.4 3.8-19 9.8-24 4.7-3.9 10.8-6.3 17.4-6.3h19.4c6.6 0 12.6 2.4 17.4 6.3 6 5 9.8 15.6 9.8 24z"/>
   <circle class="st0" cx="148.2" cy="49.9" r="20.1"/>
   <circle class="st0" cx="99.5" cy="64.8" r="16.4"/>
   <circle class="st0" cx="196.8" cy="64.8" r="16.4"/>
  </g>
 </g>
</svg>
